<svg width="162" height="154" viewBox="0 0 162 154" fill="none" xmlns="http://www.w3.org/2000/svg">
<g clip-path="url(#clip0_585_667)">
<mask id="mask0_585_667" style="mask-type:alpha" maskUnits="userSpaceOnUse" x="77" y="34" width="76" height="76">
<rect x="77.25" y="34.5" width="75" height="75" fill="#D9D9D9"/>
</mask>
<g mask="url(#mask0_585_667)">
<path d="M96 97H133.5V65.75H96V97ZM114.75 87.625C116.469 87.625 117.94 87.013 119.164 85.7891C120.388 84.5651 121 83.0938 121 81.375C121 79.6562 120.388 78.1849 119.164 76.9609C117.94 75.737 116.469 75.125 114.75 75.125C113.031 75.125 111.56 75.737 110.336 76.9609C109.112 78.1849 108.5 79.6562 108.5 81.375C108.5 83.0938 109.112 84.5651 110.336 85.7891C111.56 87.013 113.031 87.625 114.75 87.625ZM96 103.25C94.2812 103.25 92.8099 102.638 91.5859 101.414C90.362 100.19 89.75 98.7188 89.75 97V65.75C89.75 64.0312 90.362 62.5599 91.5859 61.3359C92.8099 60.112 94.2812 59.5 96 59.5H117.875V53.25C117.875 48.9271 119.398 45.2422 122.445 42.1953C125.492 39.1484 129.177 37.625 133.5 37.625C137.823 37.625 141.508 39.1484 144.555 42.1953C147.602 45.2422 149.125 48.9271 149.125 53.25H142.875C142.875 50.6458 141.964 48.4323 140.141 46.6094C138.318 44.7865 136.104 43.875 133.5 43.875C130.896 43.875 128.682 44.7865 126.859 46.6094C125.036 48.4323 124.125 50.6458 124.125 53.25V59.5H133.5C135.219 59.5 136.69 60.112 137.914 61.3359C139.138 62.5599 139.75 64.0312 139.75 65.75V97C139.75 98.7188 139.138 100.19 137.914 101.414C136.69 102.638 135.219 103.25 133.5 103.25H96Z" fill="white"/>
</g>
</g>
<mask id="mask1_585_667" style="mask-type:alpha" maskUnits="userSpaceOnUse" x="9" y="27" width="107" height="100">
<rect x="9.25" y="27.5" width="106" height="99" fill="#D9D9D9"/>
</mask>
<g mask="url(#mask1_585_667)">
<path d="M47.2337 120.312L38.842 107.113L22.942 103.812L24.4878 88.55L13.667 77L24.4878 65.45L22.942 50.1875L38.842 46.8875L47.2337 33.6875L62.2503 39.6688L77.267 33.6875L85.6587 46.8875L101.559 50.1875L100.013 65.45L110.834 77L100.013 88.55L101.559 103.812L85.6587 107.113L77.267 120.312L62.2503 114.331L47.2337 120.312ZM50.9878 109.794L62.2503 105.256L73.7337 109.794L79.917 99.8938L92.0628 97.2125L90.9587 85.6625L99.1295 77L90.9587 68.1313L92.0628 56.5813L79.917 54.1063L73.5128 44.2063L62.2503 48.7438L50.767 44.2063L44.5837 54.1063L32.4378 56.5813L33.542 68.1313L25.3712 77L33.542 85.6625L32.4378 97.4188L44.5837 99.8938L50.9878 109.794ZM57.6128 91.6438L82.567 68.3375L76.3837 62.3563L57.6128 79.8875L48.117 71.225L41.9337 77L57.6128 91.6438Z" fill="white"/>
</g>
<defs>
<clipPath id="clip0_585_667">
<rect width="56" height="75" fill="white" transform="translate(96.75 35)"/>
</clipPath>
</defs>
</svg>
