<svg width="162" height="154" viewBox="0 0 162 154" fill="none" xmlns="http://www.w3.org/2000/svg">
<rect width="162" height="154" rx="77" fill="white"/>
<mask id="mask0_585_649" style="mask-type:alpha" maskUnits="userSpaceOnUse" x="77" y="34" width="76" height="76">
<rect x="77.5" y="34.5" width="75" height="75" fill="#D9D9D9"/>
</mask>
<g mask="url(#mask0_585_649)">
<path d="M96.25 97H133.75V65.75H96.25V97ZM115 87.625C116.719 87.625 118.19 87.013 119.414 85.7891C120.638 84.5651 121.25 83.0938 121.25 81.375C121.25 79.6562 120.638 78.1849 119.414 76.9609C118.19 75.737 116.719 75.125 115 75.125C113.281 75.125 111.81 75.737 110.586 76.9609C109.362 78.1849 108.75 79.6562 108.75 81.375C108.75 83.0938 109.362 84.5651 110.586 85.7891C111.81 87.013 113.281 87.625 115 87.625ZM96.25 103.25C94.5312 103.25 93.0599 102.638 91.8359 101.414C90.612 100.19 90 98.7188 90 97V65.75C90 64.0312 90.612 62.5599 91.8359 61.3359C93.0599 60.112 94.5312 59.5 96.25 59.5H118.125V53.25C118.125 48.9271 119.648 45.2422 122.695 42.1953C125.742 39.1484 129.427 37.625 133.75 37.625C138.073 37.625 141.758 39.1484 144.805 42.1953C147.852 45.2422 149.375 48.9271 149.375 53.25H143.125C143.125 50.6458 142.214 48.4323 140.391 46.6094C138.568 44.7865 136.354 43.875 133.75 43.875C131.146 43.875 128.932 44.7865 127.109 46.6094C125.286 48.4323 124.375 50.6458 124.375 53.25V59.5H133.75C135.469 59.5 136.94 60.112 138.164 61.3359C139.388 62.5599 140 64.0312 140 65.75V97C140 98.7188 139.388 100.19 138.164 101.414C136.94 102.638 135.469 103.25 133.75 103.25H96.25Z" fill="#044714"/>
</g>
<mask id="mask1_585_649" style="mask-type:alpha" maskUnits="userSpaceOnUse" x="9" y="27" width="107" height="100">
<rect x="9.5" y="27.5" width="106" height="99" fill="#D9D9D9"/>
</mask>
<g mask="url(#mask1_585_649)">
<path d="M47.4837 120.312L39.092 107.113L23.192 103.812L24.7378 88.55L13.917 77L24.7378 65.45L23.192 50.1875L39.092 46.8875L47.4837 33.6875L62.5003 39.6688L77.517 33.6875L85.9087 46.8875L101.809 50.1875L100.263 65.45L111.084 77L100.263 88.55L101.809 103.812L85.9087 107.113L77.517 120.312L62.5003 114.331L47.4837 120.312ZM51.2378 109.794L62.5003 105.256L73.9837 109.794L80.167 99.8938L92.3128 97.2125L91.2087 85.6625L99.3795 77L91.2087 68.1313L92.3128 56.5813L80.167 54.1063L73.7628 44.2063L62.5003 48.7438L51.017 44.2063L44.8337 54.1063L32.6878 56.5813L33.792 68.1313L25.6212 77L33.792 85.6625L32.6878 97.4188L44.8337 99.8938L51.2378 109.794ZM57.8628 91.6438L82.817 68.3375L76.6337 62.3563L57.8628 79.8875L48.367 71.225L42.1837 77L57.8628 91.6438Z" fill="#28A745"/>
<path fill-rule="evenodd" clip-rule="evenodd" d="M51.2378 109.794L62.5003 105.256L73.9837 109.794L80.167 99.8938L92.3128 97.2125L91.2087 85.6625L99.3795 77L91.2087 68.1313L92.3128 56.5813L80.167 54.1063L73.7628 44.2063L62.5003 48.7438L51.017 44.2063L44.8337 54.1063L32.6878 56.5813L33.792 68.1313L25.6212 77L33.792 85.6625L32.6878 97.4188L44.8337 99.8938L51.2378 109.794ZM82.817 68.3375L57.8628 91.6438L42.1837 77L48.367 71.225L57.8628 79.8875L76.6337 62.3563L82.817 68.3375Z" fill="white"/>
</g>
</svg>
