<svg width="272" height="74" viewBox="0 0 272 74" fill="none" xmlns="http://www.w3.org/2000/svg">
<rect width="272" height="73.8438" rx="5" fill="white"/>
<mask id="mask0_788_1964" style="mask-type:alpha" maskUnits="userSpaceOnUse" x="66" y="14" width="30" height="41">
<rect x="66.9375" y="14.3438" width="28.1562" height="39.8438" fill="#D9D9D9"/>
</mask>
<g mask="url(#mask0_788_1964)">
<path d="M65.2109 47.5469H85.1328V30.9453H65.2109V47.5469ZM75.1719 42.5664C76.085 42.5664 76.8666 42.2413 77.5168 41.5911C78.1671 40.9408 78.4922 40.1592 78.4922 39.2461C78.4922 38.333 78.1671 37.5514 77.5168 36.9011C76.8666 36.2509 76.085 35.9258 75.1719 35.9258C74.2588 35.9258 73.4771 36.2509 72.8269 36.9011C72.1767 37.5514 71.8516 38.333 71.8516 39.2461C71.8516 40.1592 72.1767 40.9408 72.8269 41.5911C73.4771 42.2413 74.2588 42.5664 75.1719 42.5664ZM65.2109 50.8672C64.2979 50.8672 63.5162 50.5421 62.866 49.8918C62.2157 49.2416 61.8906 48.46 61.8906 47.5469V30.9453C61.8906 30.0322 62.2157 29.2506 62.866 28.6003C63.5162 27.9501 64.2979 27.625 65.2109 27.625H76.832V24.3047C76.832 22.0081 77.6414 20.0505 79.26 18.4319C80.8787 16.8132 82.8363 16.0039 85.1328 16.0039C87.4294 16.0039 89.387 16.8132 91.0056 18.4319C92.6243 20.0505 93.4336 22.0081 93.4336 24.3047H90.1133C90.1133 22.9212 89.6291 21.7453 88.6606 20.7769C87.6922 19.8084 86.5163 19.3242 85.1328 19.3242C83.7493 19.3242 82.5734 19.8084 81.605 20.7769C80.6366 21.7453 80.1523 22.9212 80.1523 24.3047V27.625H85.1328C86.0459 27.625 86.8276 27.9501 87.4778 28.6003C88.128 29.2506 88.4531 30.0322 88.4531 30.9453V47.5469C88.4531 48.46 88.128 49.2416 87.4778 49.8918C86.8276 50.5421 86.0459 50.8672 85.1328 50.8672H65.2109Z" fill="#044714"/>
</g>
<mask id="mask1_788_1964" style="mask-type:alpha" maskUnits="userSpaceOnUse" x="19" y="10" width="57" height="54">
<rect x="19.125" y="10.625" width="56.3125" height="52.5938" fill="#D9D9D9"/>
</mask>
<g mask="url(#mask1_788_1964)">
<path d="M39.303 59.9316L34.8449 52.9191L26.398 51.166L27.2193 43.0578L21.4707 36.9219L27.2193 30.7859L26.398 22.6777L34.8449 20.9246L39.303 13.9121L47.2806 17.0896L55.2582 13.9121L59.7163 20.9246L68.1631 22.6777L67.3419 30.7859L73.0905 36.9219L67.3419 43.0578L68.1631 51.166L59.7163 52.9191L55.2582 59.9316L47.2806 56.7541L39.303 59.9316ZM41.2974 54.3436L47.2806 51.933L53.3811 54.3436L56.666 49.0842L63.1185 47.6598L62.5319 41.5238L66.8727 36.9219L62.5319 32.2104L63.1185 26.0744L56.666 24.7596L53.2638 19.5002L47.2806 21.9107L41.1801 19.5002L37.8952 24.7596L31.4427 26.0744L32.0293 32.2104L27.6885 36.9219L32.0293 41.5238L31.4427 47.7693L37.8952 49.0842L41.2974 54.3436ZM44.8169 44.7014L58.0738 32.3199L54.7889 29.1424L44.8169 38.4559L39.7723 33.8539L36.4874 36.9219L44.8169 44.7014Z" fill="#28A745"/>
</g>
<path d="M120.581 24.797L112.965 45.5625H107.908L100.292 24.797H104.754L110.466 41.3082L116.148 24.797H120.581ZM122.067 35.15C122.067 33.1072 122.523 31.2825 123.435 29.676C124.367 28.0497 125.627 26.7902 127.213 25.8977C128.82 24.9854 130.615 24.5292 132.598 24.5292C134.919 24.5292 136.952 25.1242 138.697 26.3142C140.442 27.5042 141.662 29.1504 142.356 31.2527H137.566C137.09 30.2611 136.416 29.5173 135.543 29.0215C134.691 28.5257 133.699 28.2777 132.568 28.2777C131.359 28.2777 130.278 28.5653 129.326 29.1405C128.393 29.6958 127.66 30.4892 127.124 31.5205C126.608 32.5518 126.351 33.7617 126.351 35.15C126.351 36.5185 126.608 37.7283 127.124 38.7795C127.66 39.8108 128.393 40.6141 129.326 41.1893C130.278 41.7446 131.359 42.0222 132.568 42.0222C133.699 42.0222 134.691 41.7743 135.543 41.2785C136.416 40.7628 137.09 40.0092 137.566 39.0175H142.356C141.662 41.1397 140.442 42.7957 138.697 43.9857C136.971 45.1559 134.938 45.741 132.598 45.741C130.615 45.741 128.82 45.2947 127.213 44.4022C125.627 43.4899 124.367 42.2305 123.435 40.624C122.523 39.0175 122.067 37.1928 122.067 35.15ZM144.843 37.2622C144.843 35.5962 145.17 34.1187 145.824 32.8295C146.499 31.5403 147.401 30.5487 148.532 29.8545C149.682 29.1603 150.961 28.8132 152.369 28.8132C153.599 28.8132 154.67 29.0612 155.582 29.557C156.515 30.0528 157.258 30.6776 157.814 31.4312V29.081H162.008V45.5625H157.814V43.1527C157.278 43.9262 156.534 44.5708 155.582 45.0865C154.65 45.5823 153.569 45.8303 152.34 45.8303C150.951 45.8303 149.682 45.4733 148.532 44.7592C147.401 44.0452 146.499 43.0437 145.824 41.7545C145.17 40.4455 144.843 38.9481 144.843 37.2622ZM157.814 37.3217C157.814 36.3102 157.615 35.4475 157.219 34.7335C156.822 33.9997 156.286 33.4443 155.612 33.0675C154.938 32.6708 154.214 32.4725 153.44 32.4725C152.667 32.4725 151.953 32.6609 151.298 33.0377C150.644 33.4146 150.108 33.9699 149.692 34.7037C149.295 35.4177 149.097 36.2706 149.097 37.2622C149.097 38.2539 149.295 39.1266 149.692 39.8802C150.108 40.6141 150.644 41.1793 151.298 41.576C151.973 41.9727 152.687 42.171 153.44 42.171C154.214 42.171 154.938 41.9826 155.612 41.6057C156.286 41.2091 156.822 40.6537 157.219 39.9397C157.615 39.2059 157.814 38.3332 157.814 37.3217ZM170.241 31.461C170.777 30.7073 171.511 30.0826 172.443 29.5867C173.395 29.0711 174.476 28.8132 175.685 28.8132C177.094 28.8132 178.363 29.1603 179.493 29.8545C180.644 30.5487 181.546 31.5403 182.201 32.8295C182.875 34.0988 183.212 35.5764 183.212 37.2622C183.212 38.9481 182.875 40.4455 182.201 41.7545C181.546 43.0437 180.644 44.0452 179.493 44.7592C178.363 45.4733 177.094 45.8303 175.685 45.8303C174.476 45.8303 173.405 45.5823 172.472 45.0865C171.56 44.5907 170.816 43.9659 170.241 43.2122V53.4165H166.076V29.081H170.241V31.461ZM178.958 37.2622C178.958 36.2706 178.75 35.4177 178.333 34.7037C177.937 33.9699 177.401 33.4146 176.727 33.0377C176.072 32.6609 175.358 32.4725 174.585 32.4725C173.831 32.4725 173.117 32.6708 172.443 33.0675C171.788 33.4443 171.253 33.9997 170.836 34.7335C170.44 35.4673 170.241 36.3301 170.241 37.3217C170.241 38.3134 170.44 39.1762 170.836 39.91C171.253 40.6438 171.788 41.2091 172.443 41.6057C173.117 41.9826 173.831 42.171 174.585 42.171C175.358 42.171 176.072 41.9727 176.727 41.576C177.401 41.1793 177.937 40.6141 178.333 39.8802C178.75 39.1464 178.958 38.2737 178.958 37.2622Z" fill="#28A745"/>
<path d="M190.374 31.937V41.0107C190.374 41.6256 190.513 42.0718 190.791 42.3495C191.088 42.6073 191.584 42.7362 192.278 42.7362H194.361V45.5625H191.683C190.156 45.5625 188.986 45.2055 188.173 44.4915C187.359 43.7775 186.953 42.6172 186.953 41.0107V31.937H185.019V29.1703H186.953V25.0945H190.374V29.1703H194.361V31.937H190.374ZM196.356 37.3515C196.356 35.6657 196.693 34.1881 197.367 32.9187C198.062 31.6296 199.014 30.6379 200.223 29.9437C201.433 29.2496 202.822 28.9025 204.388 28.9025C206.372 28.9025 208.008 29.3785 209.297 30.3305C210.606 31.2627 211.489 32.6014 211.945 34.3467H208.286C207.988 33.5336 207.512 32.8989 206.858 32.4427C206.203 31.9866 205.38 31.7585 204.388 31.7585C203 31.7585 201.889 32.2543 201.056 33.246C200.243 34.2178 199.837 35.5863 199.837 37.3515C199.837 39.1167 200.243 40.4951 201.056 41.4867C201.889 42.4784 203 42.9742 204.388 42.9742C206.352 42.9742 207.651 42.1115 208.286 40.386H211.945C211.469 42.052 210.576 43.3808 209.267 44.3725C207.958 45.3443 206.332 45.8303 204.388 45.8303C202.822 45.8303 201.433 45.4832 200.223 44.789C199.014 44.075 198.062 43.0833 197.367 41.814C196.693 40.5248 196.356 39.0373 196.356 37.3515ZM223.804 28.9025C225.053 28.9025 226.164 29.1702 227.136 29.7057C228.127 30.2412 228.901 31.0346 229.456 32.0857C230.031 33.1369 230.319 34.4062 230.319 35.8937V45.5625H226.957V36.3995C226.957 34.9318 226.59 33.8112 225.856 33.0377C225.122 32.2444 224.121 31.8477 222.852 31.8477C221.582 31.8477 220.571 32.2444 219.817 33.0377C219.083 33.8112 218.716 34.9318 218.716 36.3995V45.5625H215.325V23.5475H218.716V31.0742C219.291 30.3801 220.015 29.8446 220.888 29.4677C221.781 29.0909 222.752 28.9025 223.804 28.9025ZM233.514 37.292C233.514 35.6458 233.851 34.1881 234.526 32.9187C235.22 31.6494 236.152 30.6677 237.322 29.9735C238.512 29.2595 239.821 28.9025 241.249 28.9025C242.538 28.9025 243.659 29.1603 244.611 29.676C245.583 30.1718 246.356 30.7966 246.932 31.5502V29.1703H250.353V45.5625H246.932V43.123C246.356 43.8965 245.573 44.5411 244.581 45.0567C243.59 45.5724 242.459 45.8303 241.19 45.8303C239.782 45.8303 238.492 45.4733 237.322 44.7592C236.152 44.0254 235.22 43.0139 234.526 41.7247C233.851 40.4157 233.514 38.9382 233.514 37.292ZM246.932 37.3515C246.932 36.221 246.694 35.2392 246.218 34.4062C245.761 33.5732 245.156 32.9386 244.403 32.5022C243.649 32.0659 242.836 31.8477 241.963 31.8477C241.091 31.8477 240.277 32.0659 239.524 32.5022C238.77 32.9187 238.155 33.5435 237.679 34.3765C237.223 35.1897 236.995 36.1615 236.995 37.292C236.995 38.4225 237.223 39.4142 237.679 40.267C238.155 41.1198 238.77 41.7743 239.524 42.2305C240.297 42.6668 241.11 42.885 241.963 42.885C242.836 42.885 243.649 42.6668 244.403 42.2305C245.156 41.7942 245.761 41.1595 246.218 40.3265C246.694 39.4737 246.932 38.482 246.932 37.3515Z" fill="#0C0C0C"/>
<rect x="186.469" y="57.5625" width="66.4062" height="3.71875" fill="black"/>
</svg>
