<svg width="440" height="99" viewBox="0 0 440 99" fill="none" xmlns="http://www.w3.org/2000/svg">
<mask id="mask0_585_637" style="mask-type:alpha" maskUnits="userSpaceOnUse" x="90" y="7" width="53" height="75">
<rect x="90" y="7" width="53" height="75" fill="#D9D9D9"/>
</mask>
<g mask="url(#mask0_585_637)">
<path d="M86.75 69.5H124.25V38.25H86.75V69.5ZM105.5 60.125C107.219 60.125 108.69 59.513 109.914 58.2891C111.138 57.0651 111.75 55.5938 111.75 53.875C111.75 52.1562 111.138 50.6849 109.914 49.4609C108.69 48.237 107.219 47.625 105.5 47.625C103.781 47.625 102.31 48.237 101.086 49.4609C99.862 50.6849 99.25 52.1562 99.25 53.875C99.25 55.5938 99.862 57.0651 101.086 58.2891C102.31 59.513 103.781 60.125 105.5 60.125ZM86.75 75.75C85.0312 75.75 83.5599 75.138 82.3359 73.9141C81.112 72.6901 80.5 71.2188 80.5 69.5V38.25C80.5 36.5312 81.112 35.0599 82.3359 33.8359C83.5599 32.612 85.0312 32 86.75 32H108.625V25.75C108.625 21.4271 110.148 17.7422 113.195 14.6953C116.242 11.6484 119.927 10.125 124.25 10.125C128.573 10.125 132.258 11.6484 135.305 14.6953C138.352 17.7422 139.875 21.4271 139.875 25.75H133.625C133.625 23.1458 132.714 20.9323 130.891 19.1094C129.068 17.2865 126.854 16.375 124.25 16.375C121.646 16.375 119.432 17.2865 117.609 19.1094C115.786 20.9323 114.875 23.1458 114.875 25.75V32H124.25C125.969 32 127.44 32.612 128.664 33.8359C129.888 35.0599 130.5 36.5312 130.5 38.25V69.5C130.5 71.2188 129.888 72.6901 128.664 73.9141C127.44 75.138 125.969 75.75 124.25 75.75H86.75Z" fill="#044714"/>
</g>
<mask id="mask1_585_637" style="mask-type:alpha" maskUnits="userSpaceOnUse" x="0" y="0" width="106" height="99">
<rect width="106" height="99" fill="#D9D9D9"/>
</mask>
<g mask="url(#mask1_585_637)">
<path d="M37.9837 92.8125L29.592 79.6125L13.692 76.3125L15.2378 61.05L4.41699 49.5L15.2378 37.95L13.692 22.6875L29.592 19.3875L37.9837 6.1875L53.0003 12.1688L68.017 6.1875L76.4087 19.3875L92.3087 22.6875L90.7628 37.95L101.584 49.5L90.7628 61.05L92.3087 76.3125L76.4087 79.6125L68.017 92.8125L53.0003 86.8313L37.9837 92.8125ZM41.7378 82.2938L53.0003 77.7562L64.4837 82.2938L70.667 72.3938L82.8128 69.7125L81.7087 58.1625L89.8795 49.5L81.7087 40.6313L82.8128 29.0813L70.667 26.6063L64.2628 16.7063L53.0003 21.2438L41.517 16.7063L35.3337 26.6063L23.1878 29.0813L24.292 40.6313L16.1212 49.5L24.292 58.1625L23.1878 69.9188L35.3337 72.3938L41.7378 82.2938ZM48.3628 64.1438L73.317 40.8375L67.1337 34.8563L48.3628 52.3875L38.867 43.725L32.6837 49.5L48.3628 64.1438Z" fill="#28A745"/>
</g>
<path d="M190.976 26.912L176.64 66H167.12L152.784 26.912H161.184L171.936 57.992L182.632 26.912H190.976ZM193.773 46.4C193.773 42.5547 194.631 39.12 196.349 36.096C198.103 33.0347 200.474 30.664 203.461 28.984C206.485 27.2667 209.863 26.408 213.597 26.408C217.965 26.408 221.791 27.528 225.077 29.768C228.362 32.008 230.658 35.1067 231.965 39.064H222.949C222.053 37.1973 220.783 35.7973 219.141 34.864C217.535 33.9307 215.669 33.464 213.541 33.464C211.263 33.464 209.229 34.0053 207.437 35.088C205.682 36.1333 204.301 37.6267 203.293 39.568C202.322 41.5093 201.837 43.7867 201.837 46.4C201.837 48.976 202.322 51.2533 203.293 53.232C204.301 55.1733 205.682 56.6853 207.437 57.768C209.229 58.8133 211.263 59.336 213.541 59.336C215.669 59.336 217.535 58.8693 219.141 57.936C220.783 56.9653 222.053 55.5467 222.949 53.68H231.965C230.658 57.6747 228.362 60.792 225.077 63.032C221.829 65.2347 218.002 66.336 213.597 66.336C209.863 66.336 206.485 65.496 203.461 63.816C200.474 62.0987 198.103 59.728 196.349 56.704C194.631 53.68 193.773 50.2453 193.773 46.4ZM236.645 50.376C236.645 47.24 237.261 44.4587 238.493 42.032C239.762 39.6053 241.461 37.7387 243.589 36.432C245.754 35.1253 248.162 34.472 250.813 34.472C253.128 34.472 255.144 34.9387 256.861 35.872C258.616 36.8053 260.016 37.9813 261.061 39.4V34.976H268.957V66H261.061V61.464C260.053 62.92 258.653 64.1333 256.861 65.104C255.106 66.0373 253.072 66.504 250.757 66.504C248.144 66.504 245.754 65.832 243.589 64.488C241.461 63.144 239.762 61.2587 238.493 58.832C237.261 56.368 236.645 53.5493 236.645 50.376ZM261.061 50.488C261.061 48.584 260.688 46.96 259.941 45.616C259.194 44.2347 258.186 43.1893 256.917 42.48C255.648 41.7333 254.285 41.36 252.829 41.36C251.373 41.36 250.029 41.7147 248.797 42.424C247.565 43.1333 246.557 44.1787 245.773 45.56C245.026 46.904 244.653 48.5093 244.653 50.376C244.653 52.2427 245.026 53.8853 245.773 55.304C246.557 56.6853 247.565 57.7493 248.797 58.496C250.066 59.2427 251.41 59.616 252.829 59.616C254.285 59.616 255.648 59.2613 256.917 58.552C258.186 57.8053 259.194 56.76 259.941 55.416C260.688 54.0347 261.061 52.392 261.061 50.488ZM284.454 39.456C285.462 38.0373 286.843 36.8613 288.598 35.928C290.39 34.9573 292.425 34.472 294.702 34.472C297.353 34.472 299.742 35.1253 301.87 36.432C304.035 37.7387 305.734 39.6053 306.966 42.032C308.235 44.4213 308.87 47.2027 308.87 50.376C308.87 53.5493 308.235 56.368 306.966 58.832C305.734 61.2587 304.035 63.144 301.87 64.488C299.742 65.832 297.353 66.504 294.702 66.504C292.425 66.504 290.409 66.0373 288.654 65.104C286.937 64.1707 285.537 62.9947 284.454 61.576V80.784H276.614V34.976H284.454V39.456ZM300.862 50.376C300.862 48.5093 300.47 46.904 299.686 45.56C298.939 44.1787 297.931 43.1333 296.662 42.424C295.43 41.7147 294.086 41.36 292.63 41.36C291.211 41.36 289.867 41.7333 288.598 42.48C287.366 43.1893 286.358 44.2347 285.574 45.616C284.827 46.9973 284.454 48.6213 284.454 50.488C284.454 52.3547 284.827 53.9787 285.574 55.36C286.358 56.7413 287.366 57.8053 288.598 58.552C289.867 59.2613 291.211 59.616 292.63 59.616C294.086 59.616 295.43 59.2427 296.662 58.496C297.931 57.7493 298.939 56.6853 299.686 55.304C300.47 53.9227 300.862 52.28 300.862 50.376Z" fill="#28A745"/>
<path d="M322.351 40.352V57.432C322.351 58.5893 322.612 59.4293 323.135 59.952C323.695 60.4373 324.628 60.68 325.935 60.68H329.855V66H324.815C321.94 66 319.738 65.328 318.207 63.984C316.676 62.64 315.911 60.456 315.911 57.432V40.352H312.271V35.144H315.911V27.472H322.351V35.144H329.855V40.352H322.351ZM333.611 50.544C333.611 47.3707 334.246 44.5893 335.515 42.2C336.822 39.7733 338.614 37.9067 340.891 36.6C343.168 35.2933 345.782 34.64 348.731 34.64C352.464 34.64 355.544 35.536 357.971 37.328C360.435 39.0827 362.096 41.6027 362.955 44.888H356.067C355.507 43.3573 354.611 42.1627 353.379 41.304C352.147 40.4453 350.598 40.016 348.731 40.016C346.118 40.016 344.027 40.9493 342.459 42.816C340.928 44.6453 340.163 47.2213 340.163 50.544C340.163 53.8667 340.928 56.4613 342.459 58.328C344.027 60.1947 346.118 61.128 348.731 61.128C352.427 61.128 354.872 59.504 356.067 56.256H362.955C362.059 59.392 360.379 61.8933 357.915 63.76C355.451 65.5893 352.39 66.504 348.731 66.504C345.782 66.504 343.168 65.8507 340.891 64.544C338.614 63.2 336.822 61.3333 335.515 58.944C334.246 56.5173 333.611 53.7173 333.611 50.544ZM385.277 34.64C387.629 34.64 389.72 35.144 391.549 36.152C393.416 37.16 394.872 38.6533 395.917 40.632C397 42.6107 397.541 45 397.541 47.8V66H391.213V48.752C391.213 45.9893 390.523 43.88 389.141 42.424C387.76 40.9307 385.875 40.184 383.485 40.184C381.096 40.184 379.192 40.9307 377.773 42.424C376.392 43.88 375.701 45.9893 375.701 48.752V66H369.317V24.56H375.701V38.728C376.784 37.4213 378.147 36.4133 379.789 35.704C381.469 34.9947 383.299 34.64 385.277 34.64ZM403.556 50.432C403.556 47.3333 404.191 44.5893 405.46 42.2C406.767 39.8107 408.522 37.9627 410.724 36.656C412.964 35.312 415.428 34.64 418.116 34.64C420.543 34.64 422.652 35.1253 424.444 36.096C426.274 37.0293 427.73 38.2053 428.812 39.624V35.144H435.252V66H428.812V61.408C427.73 62.864 426.255 64.0773 424.388 65.048C422.522 66.0187 420.394 66.504 418.004 66.504C415.354 66.504 412.927 65.832 410.724 64.488C408.522 63.1067 406.767 61.2027 405.46 58.776C404.191 56.312 403.556 53.5307 403.556 50.432ZM428.812 50.544C428.812 48.416 428.364 46.568 427.468 45C426.61 43.432 425.471 42.2373 424.052 41.416C422.634 40.5947 421.103 40.184 419.46 40.184C417.818 40.184 416.287 40.5947 414.868 41.416C413.45 42.2 412.292 43.376 411.396 44.944C410.538 46.4747 410.108 48.304 410.108 50.432C410.108 52.56 410.538 54.4267 411.396 56.032C412.292 57.6373 413.45 58.8693 414.868 59.728C416.324 60.5493 417.855 60.96 419.46 60.96C421.103 60.96 422.634 60.5493 424.052 59.728C425.471 58.9067 426.61 57.712 427.468 56.144C428.364 54.5387 428.812 52.672 428.812 50.544Z" fill="#0C0C0C"/>
<rect x="315" y="88" width="125" height="7" fill="black"/>
</svg>
