<svg width="35" height="22" viewBox="0 0 35 22" fill="none" xmlns="http://www.w3.org/2000/svg">
<g clip-path="url(#clip0_338_1231)">
<path fill-rule="evenodd" clip-rule="evenodd" d="M3.9001 21.6255C2.6684 21.6255 1.66992 20.627 1.66992 19.3953V3.04072C1.66992 1.80903 2.6684 0.810547 3.9001 0.810547H12.0774C19.5113 0.810547 19.5113 10.4746 15.051 10.4746C19.5113 10.4746 20.9981 21.6255 12.0774 21.6255H3.9001ZM6.87366 9.73125C6.4631 9.73125 6.13027 9.39836 6.13027 8.98786V4.52751C6.13027 4.11695 6.4631 3.78411 6.87366 3.78411H10.5906C10.5906 3.78411 13.5642 3.78411 13.5642 6.75768C13.5642 9.73125 10.5906 9.73125 10.5906 9.73125H6.87366ZM6.87366 12.7048C6.4631 12.7048 6.13027 13.0377 6.13027 13.4482V17.9086C6.13027 18.3191 6.4631 18.652 6.87366 18.652H12.0774C12.0774 18.652 14.3076 18.652 14.3076 15.6784C14.3076 12.7048 12.0774 12.7048 12.0774 12.7048H6.87366Z" fill="white"/>
<path fill-rule="evenodd" clip-rule="evenodd" d="M32.1479 14.1967C33.3803 14.1967 34.4111 13.1805 34.1598 11.9742C32.3077 3.08372 19.3821 3.90446 19.5117 14.1967C19.6106 22.0363 30.5651 24.5503 33.7905 17.4475C34.303 16.319 33.1525 15.678 32.2047 15.678C31.3623 15.678 30.7091 16.455 30.1709 17.1031C28.6215 18.969 23.9168 18.8336 23.2954 14.9562C23.2294 14.5448 23.5712 14.1967 23.9878 14.1967H32.1479ZM23.7021 11.2177C23.4829 11.2177 23.3414 10.9881 23.4584 10.8029C25.0338 8.3076 28.8211 8.33451 30.4244 10.8002C30.5447 10.9853 30.4034 11.2177 30.1827 11.2177H23.7021Z" fill="white"/>
<path d="M23.9721 2.29785C23.151 2.29785 22.4854 2.96351 22.4854 3.78464C22.4854 4.60576 23.151 5.27142 23.9721 5.27142H29.9193C30.7404 5.27142 31.4061 4.60576 31.4061 3.78464C31.4061 2.96351 30.7404 2.29785 29.9193 2.29785H23.9721Z" fill="white"/>
</g>
<defs>
<clipPath id="clip0_338_1231">
<rect width="34.0996" height="20.7033" fill="white" transform="translate(0.790039 0.648438)"/>
</clipPath>
</defs>
</svg>
