<svg width="25" height="24" viewBox="0 0 25 24" fill="none" xmlns="http://www.w3.org/2000/svg">
<g clip-path="url(#clip0_338_1235)">
<path fill-rule="evenodd" clip-rule="evenodd" d="M24.8896 23.4006H20.0896V15.4217C20.0896 13.2329 19.0733 12.0117 17.2505 12.0117C15.2669 12.0117 14.0896 13.2842 14.0896 15.4217V23.4006H9.28965V8.58059H14.0896V10.2472C14.0896 10.2472 15.5956 7.73672 18.9892 7.73672C22.384 7.73672 24.8896 9.70475 24.8896 13.7768V23.4006ZM3.82005 6.21041C2.20125 6.21041 0.889648 4.9542 0.889648 3.40494C0.889648 1.85682 2.20125 0.600586 3.82005 0.600586C5.43765 0.600586 6.74924 1.85682 6.74924 3.40494C6.75044 4.9542 5.43765 6.21041 3.82005 6.21041ZM0.889648 23.4006H6.88965V8.58059H0.889648V23.4006Z" fill="white"/>
</g>
<defs>
<clipPath id="clip0_338_1235">
<rect width="24" height="22.8" fill="white" transform="translate(0.889648 0.600098)"/>
</clipPath>
</defs>
</svg>
