<svg width="30" height="28" viewBox="0 0 30 28" fill="none" xmlns="http://www.w3.org/2000/svg">
<path fill-rule="evenodd" clip-rule="evenodd" d="M29.4333 3.817C29.8549 1.76147 27.836 0.0532789 25.8787 0.809521L1.88616 10.0794C-0.299631 10.9239 -0.397025 13.9804 1.73056 14.9623L6.95545 17.3738L9.44101 26.0732C9.57012 26.5251 9.9287 26.875 10.3836 26.9929C10.8385 27.1107 11.3219 26.9791 11.6542 26.6467L15.4829 22.818L20.8463 26.8405C22.4031 28.0081 24.6454 27.1576 25.0365 25.2513L29.4333 3.817ZM2.84219 12.5538L26.8347 3.28395L22.4379 24.7184L16.1543 20.0056C15.6263 19.6095 14.8874 19.6621 14.4207 20.1288L12.7808 21.7687L13.2735 19.0588L22.9281 9.40428C23.398 8.93442 23.4476 8.18939 23.0443 7.66133C22.6409 7.13326 21.9092 6.98514 21.3322 7.31482L7.99894 14.9338L2.84219 12.5538ZM9.62466 17.06L10.4289 19.8751L10.7377 18.1767C10.786 17.9113 10.914 17.6668 11.1048 17.4761L14.0491 14.5319L9.62466 17.06Z" fill="white"/>
</svg>
