<svg width="32" height="32" viewBox="0 0 32 32" fill="none" xmlns="http://www.w3.org/2000/svg">
<path d="M6.39533 15.1896L0.342773 0.876148H5.53652L10.4645 12.9608H7.37683L12.4479 0.876148H17.1918L11.1392 15.1896H6.39533Z" fill="white"/>
<path d="M25.15 31.4424C23.9504 31.4424 22.7917 31.3061 21.6739 31.0334C20.5561 30.7608 19.6359 30.4064 18.9135 29.9701L20.4675 26.4531C21.1491 26.8484 21.9057 27.1688 22.7372 27.4142C23.5824 27.6459 24.4003 27.7618 25.1909 27.7618C25.6544 27.7618 26.0157 27.7345 26.2747 27.68C26.5473 27.6118 26.745 27.5232 26.8677 27.4142C26.9904 27.2915 27.0517 27.1483 27.0517 26.9848C27.0517 26.7258 26.9086 26.5213 26.6223 26.3713C26.336 26.2214 25.9543 26.0987 25.4772 26.0033C25.0137 25.8942 24.5025 25.7852 23.9436 25.6761C23.3847 25.5534 22.819 25.3967 22.2465 25.2058C21.6875 25.015 21.1695 24.7628 20.6924 24.4492C20.2289 24.1357 19.8541 23.7267 19.5678 23.2224C19.2815 22.7044 19.1384 22.0637 19.1384 21.3003C19.1384 20.4142 19.3838 19.6099 19.8745 18.8874C20.3789 18.1513 21.1218 17.5651 22.1033 17.1289C23.0984 16.6927 24.3321 16.4746 25.8044 16.4746C26.7722 16.4746 27.7265 16.5768 28.6671 16.7813C29.6077 16.9858 30.4529 17.2993 31.2026 17.7219L29.7508 21.2185C29.042 20.864 28.3535 20.5982 27.6856 20.421C27.0312 20.2438 26.3905 20.1552 25.7635 20.1552C25.3 20.1552 24.9319 20.1961 24.6593 20.2779C24.3867 20.3597 24.189 20.4687 24.0663 20.605C23.9573 20.7414 23.9027 20.8913 23.9027 21.0549C23.9027 21.3003 24.0459 21.4979 24.3321 21.6479C24.6184 21.7842 24.9933 21.9001 25.4568 21.9955C25.9339 22.0909 26.4519 22.1932 27.0108 22.3022C27.5833 22.4113 28.1491 22.5612 28.708 22.7521C29.2669 22.9429 29.7781 23.1951 30.2416 23.5086C30.7187 23.8222 31.1004 24.2311 31.3866 24.7355C31.6729 25.2399 31.816 25.867 31.816 26.6167C31.816 27.4891 31.5639 28.2934 31.0595 29.0296C30.5687 29.752 29.8326 30.3382 28.8511 30.7881C27.8696 31.2243 26.6359 31.4424 25.15 31.4424Z" fill="white"/>
<path d="M1.50801 16.8017V31.1152H5.9043V24.8124L5.04549 23.4268H5.9043V24.8124L9.01237 29.827H11.1389L14.2532 24.5864L14.247 23.4268H14.9422L14.2532 24.5864L14.2879 31.1152H16.7367V16.8017H14.6764L10.1423 24.4197L11.2003 26.1464H9.11461L10.1423 24.4197L5.4749 16.8017H1.50801Z" fill="white"/>
<path d="M18.6842 31.1152L18.6433 16.8017H17.69L17.6735 31.1152H18.6842Z" fill="white"/>
<path d="M14.9422 23.4268H14.247L14.2532 24.5864L14.9422 23.4268Z" fill="white"/>
<path d="M9.11461 26.1464H11.2003L10.1423 24.4197L9.11461 26.1464Z" fill="white"/>
<path d="M5.9043 23.4268H5.04549L5.9043 24.8124V23.4268Z" fill="white"/>
<path fill-rule="evenodd" clip-rule="evenodd" d="M26.9559 0.876177H31.7815V15.1897H26.9559V9.91412H22.4982V15.1897H19.5467V0.876177H22.4982V5.94724H26.9559V0.876177ZM18.6099 0.876177V15.1897H17.6725V0.876177H18.6099Z" fill="white"/>
</svg>
