<svg width="31" height="30" viewBox="0 0 31 30" fill="none" xmlns="http://www.w3.org/2000/svg">
<g clip-path="url(#clip0_338_1224)">
<path d="M8.23194 10.1244C8.37144 9.02114 9.80531 7.52164 10.9433 7.68803L10.9414 7.68621C12.0489 7.89666 12.9255 9.80273 13.4199 10.6598C13.7701 11.2817 13.5427 11.9117 13.216 12.1776C12.7753 12.5328 12.0861 13.0229 12.2307 13.515C12.4878 14.3899 15.5398 17.442 17.041 18.3096C17.6092 18.638 18.0212 17.7718 18.373 17.3281C18.6287 16.9867 19.2592 16.7827 19.8797 17.1197C20.8063 17.6593 21.6792 18.2864 22.4864 18.9924C22.8895 19.3294 22.9841 19.8273 22.7048 20.3536C22.2128 21.2806 20.7898 22.503 19.7568 22.2546C17.9527 21.8208 10.6565 18.9924 8.31292 10.7982C8.18111 10.4105 8.2143 10.264 8.23194 10.1244Z" fill="white"/>
<path fill-rule="evenodd" clip-rule="evenodd" d="M15.5395 28.4291C14.0457 28.4291 13.2192 28.2688 11.877 27.8187L9.30647 29.104C7.68299 29.9157 5.77285 28.7352 5.77285 26.9201V24.1562C3.14385 21.7048 2.11035 18.8782 2.11035 15C2.11035 7.58325 8.1228 1.5708 15.5395 1.5708C22.9562 1.5708 28.9687 7.58325 28.9687 15C28.9687 22.4167 22.9562 28.4291 15.5395 28.4291ZM8.21452 23.0945L7.43801 22.3704C5.39546 20.4659 4.55202 18.3366 4.55202 15C4.55202 8.93174 9.47129 4.01247 15.5395 4.01247C21.6078 4.01247 26.527 8.93174 26.527 15C26.527 21.0682 21.6078 25.9875 15.5395 25.9875C14.3361 25.9875 13.7718 25.8788 12.6534 25.5038L11.692 25.1814L8.21452 26.9201V23.0945Z" fill="white"/>
</g>
<defs>
<clipPath id="clip0_338_1224">
<rect width="29.3" height="29.3" fill="white" transform="translate(0.889648 0.350098)"/>
</clipPath>
</defs>
</svg>
